<svg width="14" height="14" viewBox="0 0 14 14" fill="none" xmlns="http://www.w3.org/2000/svg">
<path d="M4.3335 1.66669L3.3335 2.66669" stroke="#8C8A97" stroke-linecap="round" stroke-linejoin="round"/>
<path d="M3.3335 0.666687L4.3335 1.66669" stroke="#8C8A97" stroke-linecap="round" stroke-linejoin="round"/>
<path d="M3 1.66669C1.89533 1.66669 1 2.56202 1 3.66669" stroke="#8C8A97" stroke-linecap="round" stroke-linejoin="round"/>
<path d="M3 1.66671H4.33333" stroke="#8C8A97" stroke-linecap="round" stroke-linejoin="round"/>
<path d="M9.6665 12.3334L10.6665 11.3334" stroke="#8C8A97" stroke-linecap="round" stroke-linejoin="round"/>
<path d="M10.6665 13.3334L9.6665 12.3334" stroke="#8C8A97" stroke-linecap="round" stroke-linejoin="round"/>
<path d="M11 12.3334C12.1047 12.3334 13 11.438 13 10.3334" stroke="#8C8A97" stroke-linecap="round" stroke-linejoin="round"/>
<path d="M10.9998 12.3333H9.6665" stroke="#8C8A97" stroke-linecap="round" stroke-linejoin="round"/>
<path fill-rule="evenodd" clip-rule="evenodd" d="M5.33317 12.3333C7.34984 12.3333 8.99984 10.6833 8.99984 8.66667C8.99984 6.65 7.34984 5 5.33317 5C3.3165 5 1.6665 6.65 1.6665 8.66667C1.6665 9.48933 1.9445 10.2487 2.4065 10.8613C3.0765 11.7527 4.13917 12.3333 5.33317 12.3333Z" stroke="#8C8A97" stroke-linecap="round" stroke-linejoin="round"/>
<path d="M11.2592 2.74066C12.6852 4.16666 12.6852 6.5 11.2592 7.926C11.1452 8.04 11.0205 8.13533 10.8945 8.228" stroke="#8C8A97" stroke-linecap="round" stroke-linejoin="round"/>
<path d="M11.2592 2.7407C9.83322 1.3147 7.49989 1.3147 6.07389 2.7407C5.96055 2.85404 5.86322 2.97737 5.76855 3.10204" stroke="#8C8A97" stroke-linecap="round" stroke-linejoin="round"/>
</svg>
